<svg width="1em" height="1em" viewBox="0 0 36 36" fill="white" xmlns="http://www.w3.org/2000/svg">
<g clip-path="url(#clip0_2775_38881)">
<path fill-rule="evenodd" clip-rule="evenodd" d="M17.9995 36.0001C27.9406 36.0001 35.9995 27.9412 35.9995 18.0001C35.9995 8.05897 27.9406 9.15527e-05 17.9995 9.15527e-05C8.05839 9.15527e-05 -0.000488281 8.05897 -0.000488281 18.0001C-0.000488281 27.9412 8.05839 36.0001 17.9995 36.0001ZM13.9995 16.0001C14.8279 16.0001 15.4995 15.3285 15.4995 14.5001C15.4995 13.6717 14.8279 13.0001 13.9995 13.0001C13.1711 13.0001 12.4995 13.6717 12.4995 14.5001C12.4995 15.3285 13.1711 16.0001 13.9995 16.0001ZM21.9995 16.0001C22.8279 16.0001 23.4995 15.3285 23.4995 14.5001C23.4995 13.6717 22.8279 13.0001 21.9995 13.0001C21.1711 13.0001 20.4995 13.6717 20.4995 14.5001C20.4995 15.3285 21.1711 16.0001 21.9995 16.0001ZM23.7836 24.9589C24.3132 24.8022 24.6154 24.2458 24.4586 23.7162C24.1832 22.7861 23.4476 21.6278 22.3629 20.7008C21.2588 19.7572 19.7301 19.0001 17.8509 19.0001C15.9632 19.0001 14.4766 19.7728 13.4294 20.7223C12.4052 21.6509 11.7481 22.796 11.5296 23.6699C11.3956 24.2057 11.7214 24.7486 12.2572 24.8826C12.793 25.0166 13.3359 24.6908 13.4699 24.155C13.5802 23.7139 14.002 22.9027 14.7728 22.204C15.5206 21.526 16.5451 21.0001 17.8509 21.0001C19.1651 21.0001 20.248 21.5242 21.0636 22.2212C21.8986 22.9349 22.3907 23.7766 22.5409 24.284C22.6977 24.8135 23.2541 25.1157 23.7836 24.9589Z" fill="currentColor"/>
</g>
<defs>
<clipPath id="clip0_2775_38881">
<rect width="36" height="36" fill="currentColor"/>
</clipPath>
</defs>
</svg>
