<svg width="1em" height="1em" viewBox="0 0 24 24" fill="none" xmlns="http://www.w3.org/2000/svg">
<path fill-rule="evenodd" clip-rule="evenodd" d="M12.5303 3.46967C12.2374 3.17678 11.7626 3.17678 11.4697 3.46967C11.1768 3.76256 11.1768 4.23744 11.4697 4.53033L18.1893 11.25H4C3.58579 11.25 3.25 11.5858 3.25 12C3.25 12.4142 3.58579 12.75 4 12.75H18.1893L11.4697 19.4697C11.1768 19.7626 11.1768 20.2374 11.4697 20.5303C11.7626 20.8232 12.2374 20.8232 12.5303 20.5303L20.5303 12.5303C20.6768 12.3839 20.75 12.1919 20.75 12C20.75 11.8983 20.7298 11.8013 20.6931 11.7129C20.6565 11.6245 20.6022 11.5416 20.5303 11.4697L12.5303 3.46967Z" fill="currentColor"/>
</svg>
