<svg width="1em" height="1em" viewBox="0 0 24 24" fill="#202020" xmlns="http://www.w3.org/2000/svg">
<path fill-rule="evenodd" clip-rule="evenodd" d="M18.3086 6.93389C18.6015 6.64099 18.6015 6.16612 18.3086 5.87323C18.0158 5.58033 17.5409 5.58033 17.248 5.87323L12.2125 10.9088L7.11627 5.81256C6.82337 5.51966 6.3485 5.51966 6.05561 5.81256C5.76271 6.10545 5.76271 6.58032 6.05561 6.87322L11.1518 11.9694L5.93428 17.1869C5.64139 17.4798 5.64139 17.9547 5.93428 18.2476C6.22717 18.5405 6.70205 18.5405 6.99494 18.2476L12.2125 13.0301L17.3693 18.1869C17.6622 18.4798 18.1371 18.4798 18.43 18.1869C18.7229 17.894 18.7229 17.4192 18.43 17.1263L13.2731 11.9694L18.3086 6.93389Z" fill="currentColor"/>
</svg>
