<svg width="1em" height="1em" viewBox="0 0 24 24" fill="#C9C9C9" xmlns="http://www.w3.org/2000/svg">
<path d="M11.75 19.75C16.1683 19.75 19.75 16.1683 19.75 11.75C19.75 7.33172 16.1683 3.75 11.75 3.75C7.33172 3.75 3.75 7.33172 3.75 11.75C3.75 16.1683 7.33172 19.75 11.75 19.75Z" fill="currentColor"/>
<path fill-rule="evenodd" clip-rule="evenodd" d="M11.75 4.5C7.74594 4.5 4.5 7.74594 4.5 11.75C4.5 15.7541 7.74594 19 11.75 19C15.7541 19 19 15.7541 19 11.75C19 7.74594 15.7541 4.5 11.75 4.5ZM3 11.75C3 6.91751 6.91751 3 11.75 3C16.5825 3 20.5 6.91751 20.5 11.75C20.5 16.5825 16.5825 20.5 11.75 20.5C6.91751 20.5 3 16.5825 3 11.75Z" fill="currentColor"/>
<path fill-rule="evenodd" clip-rule="evenodd" d="M9.28033 8.21967C8.98744 7.92678 8.51256 7.92678 8.21967 8.21967C7.92678 8.51256 7.92678 8.98744 8.21967 9.28033L10.6893 11.75L8.21967 14.2197C7.92678 14.5126 7.92678 14.9874 8.21967 15.2803C8.51256 15.5732 8.98744 15.5732 9.28033 15.2803L11.75 12.8107L14.2197 15.2803C14.5126 15.5732 14.9874 15.5732 15.2803 15.2803C15.5732 14.9874 15.5732 14.5126 15.2803 14.2197L12.8107 11.75L15.2803 9.28033C15.5732 8.98744 15.5732 8.51256 15.2803 8.21967C14.9874 7.92678 14.5126 7.92678 14.2197 8.21967L11.75 10.6893L9.28033 8.21967Z" fill="white"/>
</svg>
