<svg width="1em" height="1em" viewBox="0 0 36 36" fill="none" xmlns="http://www.w3.org/2000/svg">
<g clip-path="url(#clip0_2775_38860)">
<path fill-rule="evenodd" clip-rule="evenodd" d="M18 36C27.9411 36 36 27.9411 36 18C36 8.05887 27.9411 0 18 0C8.05887 0 0 8.05887 0 18C0 27.9411 8.05887 36 18 36ZM15.8322 14.4453C16.1385 14.9048 16.0143 15.5257 15.5548 15.8321C15.0953 16.1384 14.4744 16.0142 14.1681 15.5547C13.9621 15.2458 13.4409 15 12.9339 15C12.449 15 12.0089 15.2312 11.8322 15.4963C11.5258 15.9558 10.9049 16.08 10.4454 15.7736C9.98588 15.4673 9.8617 14.8464 10.1681 14.3869C10.8023 13.4355 11.9532 13 12.9339 13C13.8926 13 15.1492 13.4209 15.8322 14.4453ZM24.2988 18.8984C24.4895 19.1516 24.5488 19.4801 24.4589 19.7839C24.2037 20.6459 23.5162 22.0267 22.458 23.2067C21.3983 24.3883 19.8433 25.5 17.8511 25.5C15.847 25.5 14.3373 24.3673 13.3371 23.1819C12.3417 22.0022 11.7315 20.6366 11.5299 19.8302C11.4555 19.5328 11.5217 19.2178 11.7093 18.9754C11.897 18.733 12.1855 18.5901 12.492 18.5877L23.492 18.5C23.8089 18.4975 24.1082 18.6453 24.2988 18.8984ZM25.5548 15.8321C26.0143 15.5257 26.1385 14.9048 25.8322 14.4453C25.1492 13.4209 23.8926 13 22.9339 13C21.9532 13 20.8023 13.4355 20.1681 14.3869C19.8617 14.8464 19.9859 15.4673 20.4454 15.7736C20.9049 16.08 21.5258 15.9558 21.8322 15.4963C22.0089 15.2312 22.449 15 22.9339 15C23.4409 15 23.9621 15.2458 24.1681 15.5547C24.4744 16.0142 25.0953 16.1384 25.5548 15.8321Z" fill="currentColor"/>
</g>
<defs>
<clipPath id="clip0_2775_38860">
<rect width="36" height="36" fill="white"/>
</clipPath>
</defs>
</svg>
