<svg width="1em" height="1em" viewBox="0 0 36 36" fill="none" xmlns="http://www.w3.org/2000/svg">
<g clip-path="url(#clip0_2775_38951)">
<path fill-rule="evenodd" clip-rule="evenodd" d="M17.9995 36.0001C27.9406 36.0001 35.9995 27.9412 35.9995 18.0001C35.9995 8.05897 27.9406 9.15527e-05 17.9995 9.15527e-05C8.05839 9.15527e-05 -0.000488281 8.05897 -0.000488281 18.0001C-0.000488281 27.9412 8.05839 36.0001 17.9995 36.0001ZM13.9995 16.0001C14.8279 16.0001 15.4995 15.3285 15.4995 14.5001C15.4995 13.6717 14.8279 13.0001 13.9995 13.0001C13.1711 13.0001 12.4995 13.6717 12.4995 14.5001C12.4995 15.3285 13.1711 16.0001 13.9995 16.0001ZM21.9995 16.0001C22.8279 16.0001 23.4995 15.3285 23.4995 14.5001C23.4995 13.6717 22.8279 13.0001 21.9995 13.0001C21.1711 13.0001 20.4995 13.6717 20.4995 14.5001C20.4995 15.3285 21.1711 16.0001 21.9995 16.0001ZM23.2071 20.7929C23.5976 21.1834 23.5976 21.8166 23.2071 22.2071C22.5453 22.8689 21.6215 23.3075 20.7069 23.5826C19.7781 23.862 18.7685 24 17.8511 24C16.9318 24 15.9714 23.8615 15.102 23.5907C14.2445 23.3237 13.4035 22.9053 12.7929 22.2947C12.4024 21.9042 12.4024 21.2711 12.7929 20.8805C13.1834 20.49 13.8166 20.49 14.2071 20.8805C14.5089 21.1823 15.019 21.4701 15.6967 21.6812C16.3626 21.8885 17.1216 22 17.8511 22C18.5826 22 19.3975 21.888 20.1308 21.6674C20.8785 21.4425 21.4547 21.1311 21.7929 20.7929C22.1834 20.4024 22.8166 20.4024 23.2071 20.7929Z" fill="currentColor"/>
</g>
<defs>
<clipPath id="clip0_2775_38951">
<rect width="36" height="36" fill="white"/>
</clipPath>
</defs>
</svg>
