<svg width="1em" height="1em" viewBox="0 0 36 36" fill="none" xmlns="http://www.w3.org/2000/svg">
<path d="M18.1836 16.3636V19.8491H23.1261C22.9091 20.97 22.2578 21.9191 21.281 22.5573L24.2615 24.8237C25.9981 23.2528 27 20.9455 27 18.2046C27 17.5665 26.9415 16.9528 26.833 16.3637L18.1836 16.3636Z" fill="#4285F4"/>
<path d="M13.0368 19.713L12.3646 20.2173L9.98511 22.0336C11.4963 24.9709 14.5935 27 18.1835 27C20.663 27 22.7419 26.1982 24.2614 24.8237L21.2809 22.5573C20.4627 23.0973 19.419 23.4246 18.1835 23.4246C15.7957 23.4246 13.767 21.8455 13.0406 19.7182L13.0368 19.713Z" fill="#34A853"/>
<path d="M9.9851 13.9664C9.35896 15.1772 9 16.5436 9 18C9 19.4563 9.35896 20.8227 9.9851 22.0335C9.9851 22.0417 13.0408 19.7099 13.0408 19.7099C12.8572 19.1699 12.7486 18.5972 12.7486 17.9999C12.7486 17.4025 12.8572 16.8298 13.0408 16.2898L9.9851 13.9664Z" fill="#FBBC05"/>
<path d="M18.1836 12.5836C19.5362 12.5836 20.7384 13.0418 21.6985 13.9255L24.3284 11.3482C22.7338 9.89187 20.6633 9 18.1836 9C14.5936 9 11.4963 11.0209 9.98511 13.9664L13.0408 16.29C13.7671 14.1627 15.7959 12.5836 18.1836 12.5836Z" fill="#EA4335"/>
</svg>
