<svg width="1em" height="1em" viewBox="0 0 36 36" fill="none" xmlns="http://www.w3.org/2000/svg">
<path d="M18.2375 11.8846C19.125 11.8846 20.2375 11.3048 20.9 10.5318C21.5 9.83121 21.9375 8.85283 21.9375 7.87444C21.9375 7.74158 21.925 7.60871 21.9 7.5C20.9125 7.53624 19.725 8.14018 19.0125 8.94946C18.45 9.56548 17.9375 10.5318 17.9375 11.5223C17.9375 11.6672 17.9625 11.8121 17.975 11.8605C18.0375 11.8725 18.1375 11.8846 18.2375 11.8846ZM15.1125 26.5C16.325 26.5 16.8625 25.7149 18.375 25.7149C19.9125 25.7149 20.25 26.4758 21.6 26.4758C22.925 26.4758 23.8125 25.2921 24.65 24.1325C25.5875 22.8039 25.975 21.4994 26 21.439C25.9125 21.4148 23.375 20.4123 23.375 17.5979C23.375 15.158 25.375 14.0588 25.4875 13.9743C24.1625 12.1383 22.15 12.09 21.6 12.09C20.1125 12.09 18.9 12.9596 18.1375 12.9596C17.3125 12.9596 16.225 12.1383 14.9375 12.1383C12.4875 12.1383 10 14.095 10 17.7912C10 20.0861 10.925 22.514 12.0625 24.0842C13.0375 25.4129 13.8875 26.5 15.1125 26.5Z" fill="white"/>
</svg>
